<mxfile host="65bd71144e">
    <diagram id="NTLJg8JVvALnG2Afh8XJ" name="第 1 页">
        <mxGraphModel dx="5877" dy="733" grid="1" gridSize="10" guides="1" tooltips="1" connect="1" arrows="1" fold="1" page="1" pageScale="1" pageWidth="4800" pageHeight="2400" math="0" shadow="0">
            <root>
                <mxCell id="0"/>
                <mxCell id="1" parent="0"/>
                <mxCell id="35" value="" style="rounded=1;whiteSpace=wrap;html=1;fontSize=24;" vertex="1" parent="1">
                    <mxGeometry x="160" y="720" width="3050" height="1590" as="geometry"/>
                </mxCell>
                <mxCell id="33" value="" style="rounded=1;whiteSpace=wrap;html=1;fontSize=24;" vertex="1" parent="1">
                    <mxGeometry x="320" y="820" width="2860" height="1000" as="geometry"/>
                </mxCell>
                <mxCell id="26" value="CTRL" style="rounded=0;whiteSpace=wrap;html=1;fontSize=24;" vertex="1" parent="1">
                    <mxGeometry x="400" y="1000" width="240" height="440" as="geometry"/>
                </mxCell>
                <mxCell id="27" value="IF" style="rounded=0;whiteSpace=wrap;html=1;fontSize=24;" vertex="1" parent="1">
                    <mxGeometry x="840" y="1000" width="240" height="440" as="geometry"/>
                </mxCell>
                <mxCell id="28" value="ID" style="rounded=0;whiteSpace=wrap;html=1;fontSize=24;" vertex="1" parent="1">
                    <mxGeometry x="1270" y="1000" width="240" height="440" as="geometry"/>
                </mxCell>
                <mxCell id="29" value="EX" style="rounded=0;whiteSpace=wrap;html=1;fontSize=24;" vertex="1" parent="1">
                    <mxGeometry x="1740" y="1000" width="240" height="440" as="geometry"/>
                </mxCell>
                <mxCell id="30" value="MEM" style="rounded=0;whiteSpace=wrap;html=1;fontSize=24;" vertex="1" parent="1">
                    <mxGeometry x="2210" y="1000" width="240" height="440" as="geometry"/>
                </mxCell>
                <mxCell id="31" value="WB" style="rounded=0;whiteSpace=wrap;html=1;fontSize=24;" vertex="1" parent="1">
                    <mxGeometry x="2680" y="1000" width="240" height="440" as="geometry"/>
                </mxCell>
                <mxCell id="34" value="CPUCORE" style="rounded=0;whiteSpace=wrap;html=1;fontSize=24;" vertex="1" parent="1">
                    <mxGeometry x="1580" y="830" width="120" height="40" as="geometry"/>
                </mxCell>
                <mxCell id="36" value="CPUTOP" style="rounded=0;whiteSpace=wrap;html=1;fontSize=24;" vertex="1" parent="1">
                    <mxGeometry x="1580" y="740" width="120" height="40" as="geometry"/>
                </mxCell>
                <mxCell id="37" value="MMU" style="rounded=0;whiteSpace=wrap;html=1;fontSize=24;" vertex="1" parent="1">
                    <mxGeometry x="890" y="2010" width="220" height="210" as="geometry"/>
                </mxCell>
                <mxCell id="38" value="MMU" style="rounded=0;whiteSpace=wrap;html=1;fontSize=24;" vertex="1" parent="1">
                    <mxGeometry x="1460" y="2010" width="220" height="210" as="geometry"/>
                </mxCell>
                <mxCell id="39" value="clk" style="endArrow=classic;html=1;fontSize=24;" edge="1" parent="1">
                    <mxGeometry relative="1" as="geometry">
                        <mxPoint x="-80" y="1000" as="sourcePoint"/>
                        <mxPoint x="160" y="1000" as="targetPoint"/>
                    </mxGeometry>
                </mxCell>
                <mxCell id="41" value="" style="endArrow=classic;html=1;fontSize=24;" edge="1" parent="1">
                    <mxGeometry relative="1" as="geometry">
                        <mxPoint x="-80" y="1280" as="sourcePoint"/>
                        <mxPoint x="160" y="1280" as="targetPoint"/>
                    </mxGeometry>
                </mxCell>
                <mxCell id="43" value="&lt;div style=&quot;color: rgb(212 , 212 , 212) ; background-color: rgb(30 , 30 , 30) ; font-family: &amp;#34;consolas&amp;#34; , &amp;#34;courier new&amp;#34; , monospace ; font-size: 20px ; line-height: 27px&quot;&gt;&lt;br&gt;&lt;/div&gt;" style="edgeLabel;html=1;align=center;verticalAlign=middle;resizable=0;points=[];fontSize=18;" vertex="1" connectable="0" parent="41">
                    <mxGeometry x="-0.0931" y="1" relative="1" as="geometry">
                        <mxPoint as="offset"/>
                    </mxGeometry>
                </mxCell>
                <mxCell id="45" value="inst_sram_rdata" style="edgeLabel;html=1;align=center;verticalAlign=middle;resizable=0;points=[];fontSize=18;" vertex="1" connectable="0" parent="41">
                    <mxGeometry x="-0.0637" y="1" relative="1" as="geometry">
                        <mxPoint as="offset"/>
                    </mxGeometry>
                </mxCell>
                <mxCell id="46" value="" style="endArrow=classic;html=1;fontSize=18;entryX=0;entryY=0.302;entryDx=0;entryDy=0;entryPerimeter=0;" edge="1" parent="1" target="35">
                    <mxGeometry relative="1" as="geometry">
                        <mxPoint x="-80" y="1200" as="sourcePoint"/>
                        <mxPoint x="20" y="1200" as="targetPoint"/>
                    </mxGeometry>
                </mxCell>
                <mxCell id="184" value="data_sram_rdata" style="edgeLabel;html=1;align=center;verticalAlign=middle;resizable=0;points=[];fontSize=18;" vertex="1" connectable="0" parent="46">
                    <mxGeometry x="-0.2653" y="4" relative="1" as="geometry">
                        <mxPoint x="22" y="4" as="offset"/>
                    </mxGeometry>
                </mxCell>
                <mxCell id="48" value="" style="endArrow=classic;html=1;fontSize=18;" edge="1" parent="1">
                    <mxGeometry relative="1" as="geometry">
                        <mxPoint x="-80" y="1400" as="sourcePoint"/>
                        <mxPoint x="160" y="1400" as="targetPoint"/>
                    </mxGeometry>
                </mxCell>
                <mxCell id="49" value="&lt;div style=&quot;color: rgb(212 , 212 , 212) ; background-color: rgb(30 , 30 , 30) ; font-family: &amp;#34;consolas&amp;#34; , &amp;#34;courier new&amp;#34; , monospace ; font-size: 20px ; line-height: 27px&quot;&gt;&lt;br&gt;&lt;/div&gt;" style="edgeLabel;resizable=0;html=1;align=center;verticalAlign=middle;fontSize=18;" connectable="0" vertex="1" parent="48">
                    <mxGeometry relative="1" as="geometry"/>
                </mxCell>
                <mxCell id="50" value="[5:0] ext_int" style="edgeLabel;html=1;align=center;verticalAlign=middle;resizable=0;points=[];fontSize=18;" vertex="1" connectable="0" parent="48">
                    <mxGeometry x="0.1129" relative="1" as="geometry">
                        <mxPoint as="offset"/>
                    </mxGeometry>
                </mxCell>
                <mxCell id="54" style="edgeStyle=none;html=1;exitX=1;exitY=0.5;exitDx=0;exitDy=0;exitPerimeter=0;fontSize=18;" edge="1" parent="1" source="53" target="33">
                    <mxGeometry relative="1" as="geometry">
                        <Array as="points">
                            <mxPoint x="320" y="1080"/>
                        </Array>
                    </mxGeometry>
                </mxCell>
                <mxCell id="53" value="" style="verticalLabelPosition=bottom;shadow=0;dashed=0;align=center;html=1;verticalAlign=top;shape=mxgraph.electrical.logic_gates.inverter_2;fontSize=18;" vertex="1" parent="1">
                    <mxGeometry x="150" y="1050" width="100" height="60" as="geometry"/>
                </mxCell>
                <mxCell id="57" value="" style="endArrow=classic;html=1;fontSize=18;entryX=-0.001;entryY=0.226;entryDx=0;entryDy=0;entryPerimeter=0;" edge="1" parent="1" target="35">
                    <mxGeometry relative="1" as="geometry">
                        <mxPoint x="-80" y="1080" as="sourcePoint"/>
                        <mxPoint x="20" y="1080" as="targetPoint"/>
                    </mxGeometry>
                </mxCell>
                <mxCell id="58" value="resetn" style="edgeLabel;resizable=0;html=1;align=center;verticalAlign=middle;fontSize=18;" connectable="0" vertex="1" parent="57">
                    <mxGeometry relative="1" as="geometry"/>
                </mxCell>
                <mxCell id="59" value="" style="endArrow=classic;html=1;fontSize=18;entryX=0.001;entryY=0.381;entryDx=0;entryDy=0;entryPerimeter=0;" edge="1" parent="1" target="33">
                    <mxGeometry relative="1" as="geometry">
                        <mxPoint x="160" y="1200" as="sourcePoint"/>
                        <mxPoint x="260" y="1200" as="targetPoint"/>
                    </mxGeometry>
                </mxCell>
                <mxCell id="61" value="" style="endArrow=classic;html=1;fontSize=18;entryX=0;entryY=0.58;entryDx=0;entryDy=0;entryPerimeter=0;" edge="1" parent="1" target="33">
                    <mxGeometry relative="1" as="geometry">
                        <mxPoint x="160" y="1400" as="sourcePoint"/>
                        <mxPoint x="260" y="1400" as="targetPoint"/>
                    </mxGeometry>
                </mxCell>
                <mxCell id="62" value="" style="endArrow=classic;html=1;fontSize=18;" edge="1" parent="1">
                    <mxGeometry relative="1" as="geometry">
                        <mxPoint x="160" y="1280" as="sourcePoint"/>
                        <mxPoint x="320" y="1280" as="targetPoint"/>
                    </mxGeometry>
                </mxCell>
                <mxCell id="63" value="" style="endArrow=classic;html=1;fontSize=18;" edge="1" parent="1">
                    <mxGeometry relative="1" as="geometry">
                        <mxPoint x="160" y="1000" as="sourcePoint"/>
                        <mxPoint x="320" y="1000" as="targetPoint"/>
                    </mxGeometry>
                </mxCell>
                <mxCell id="65" value="" style="endArrow=classic;html=1;fontSize=18;" edge="1" parent="1">
                    <mxGeometry width="50" height="50" relative="1" as="geometry">
                        <mxPoint x="320" y="1080" as="sourcePoint"/>
                        <mxPoint x="400" y="960" as="targetPoint"/>
                    </mxGeometry>
                </mxCell>
                <mxCell id="67" value="" style="endArrow=none;html=1;fontSize=18;" edge="1" parent="1">
                    <mxGeometry width="50" height="50" relative="1" as="geometry">
                        <mxPoint x="400" y="880" as="sourcePoint"/>
                        <mxPoint x="2900" y="880" as="targetPoint"/>
                    </mxGeometry>
                </mxCell>
                <mxCell id="70" value="clk" style="edgeLabel;html=1;align=center;verticalAlign=middle;resizable=0;points=[];fontSize=18;" vertex="1" connectable="0" parent="67">
                    <mxGeometry x="-0.258" y="-1" relative="1" as="geometry">
                        <mxPoint as="offset"/>
                    </mxGeometry>
                </mxCell>
                <mxCell id="68" value="" style="endArrow=classic;html=1;fontSize=18;" edge="1" parent="1">
                    <mxGeometry width="50" height="50" relative="1" as="geometry">
                        <mxPoint x="320" y="1000" as="sourcePoint"/>
                        <mxPoint x="400" y="880" as="targetPoint"/>
                    </mxGeometry>
                </mxCell>
                <mxCell id="69" value="" style="endArrow=none;html=1;fontSize=18;" edge="1" parent="1">
                    <mxGeometry width="50" height="50" relative="1" as="geometry">
                        <mxPoint x="400" y="960" as="sourcePoint"/>
                        <mxPoint x="2900" y="960" as="targetPoint"/>
                    </mxGeometry>
                </mxCell>
                <mxCell id="72" value="rst" style="edgeLabel;html=1;align=center;verticalAlign=middle;resizable=0;points=[];fontSize=18;" vertex="1" connectable="0" parent="69">
                    <mxGeometry x="-0.2532" y="-1" relative="1" as="geometry">
                        <mxPoint as="offset"/>
                    </mxGeometry>
                </mxCell>
                <mxCell id="73" value="[31:0] inst_sram_addr" style="endArrow=classic;html=1;fontSize=18;" edge="1" parent="1">
                    <mxGeometry width="50" height="50" relative="1" as="geometry">
                        <mxPoint x="999.5" y="1820" as="sourcePoint"/>
                        <mxPoint x="1000" y="2010" as="targetPoint"/>
                    </mxGeometry>
                </mxCell>
                <mxCell id="76" value="" style="endArrow=classic;html=1;fontSize=18;" edge="1" parent="1">
                    <mxGeometry width="50" height="50" relative="1" as="geometry">
                        <mxPoint x="470" y="960" as="sourcePoint"/>
                        <mxPoint x="470" y="1000" as="targetPoint"/>
                    </mxGeometry>
                </mxCell>
                <mxCell id="77" value="" style="endArrow=classic;html=1;fontSize=18;" edge="1" parent="1">
                    <mxGeometry width="50" height="50" relative="1" as="geometry">
                        <mxPoint x="890" y="880" as="sourcePoint"/>
                        <mxPoint x="890" y="1000" as="targetPoint"/>
                    </mxGeometry>
                </mxCell>
                <mxCell id="78" value="" style="endArrow=classic;html=1;fontSize=18;" edge="1" parent="1">
                    <mxGeometry width="50" height="50" relative="1" as="geometry">
                        <mxPoint x="1290" y="880" as="sourcePoint"/>
                        <mxPoint x="1290" y="1000" as="targetPoint"/>
                    </mxGeometry>
                </mxCell>
                <mxCell id="79" value="" style="endArrow=classic;html=1;fontSize=18;" edge="1" parent="1">
                    <mxGeometry width="50" height="50" relative="1" as="geometry">
                        <mxPoint x="1780" y="880" as="sourcePoint"/>
                        <mxPoint x="1780" y="1000" as="targetPoint"/>
                    </mxGeometry>
                </mxCell>
                <mxCell id="80" value="" style="endArrow=classic;html=1;fontSize=18;" edge="1" parent="1">
                    <mxGeometry width="50" height="50" relative="1" as="geometry">
                        <mxPoint x="2250" y="880" as="sourcePoint"/>
                        <mxPoint x="2250" y="1000" as="targetPoint"/>
                    </mxGeometry>
                </mxCell>
                <mxCell id="81" value="" style="endArrow=classic;html=1;fontSize=18;" edge="1" parent="1">
                    <mxGeometry width="50" height="50" relative="1" as="geometry">
                        <mxPoint x="2710" y="880" as="sourcePoint"/>
                        <mxPoint x="2710" y="1000" as="targetPoint"/>
                    </mxGeometry>
                </mxCell>
                <mxCell id="82" value="" style="endArrow=classic;html=1;fontSize=18;" edge="1" parent="1">
                    <mxGeometry width="50" height="50" relative="1" as="geometry">
                        <mxPoint x="910" y="960" as="sourcePoint"/>
                        <mxPoint x="910" y="1000" as="targetPoint"/>
                    </mxGeometry>
                </mxCell>
                <mxCell id="83" value="" style="endArrow=classic;html=1;fontSize=18;" edge="1" parent="1">
                    <mxGeometry width="50" height="50" relative="1" as="geometry">
                        <mxPoint x="1360" y="960" as="sourcePoint"/>
                        <mxPoint x="1360" y="1000" as="targetPoint"/>
                    </mxGeometry>
                </mxCell>
                <mxCell id="84" value="" style="endArrow=classic;html=1;fontSize=18;" edge="1" parent="1">
                    <mxGeometry width="50" height="50" relative="1" as="geometry">
                        <mxPoint x="1810" y="960" as="sourcePoint"/>
                        <mxPoint x="1810" y="1000" as="targetPoint"/>
                    </mxGeometry>
                </mxCell>
                <mxCell id="85" value="" style="endArrow=classic;html=1;fontSize=18;" edge="1" parent="1">
                    <mxGeometry width="50" height="50" relative="1" as="geometry">
                        <mxPoint x="2280" y="960" as="sourcePoint"/>
                        <mxPoint x="2280" y="1000" as="targetPoint"/>
                    </mxGeometry>
                </mxCell>
                <mxCell id="86" value="" style="endArrow=classic;html=1;fontSize=18;" edge="1" parent="1">
                    <mxGeometry width="50" height="50" relative="1" as="geometry">
                        <mxPoint x="2740" y="960" as="sourcePoint"/>
                        <mxPoint x="2740" y="1000" as="targetPoint"/>
                    </mxGeometry>
                </mxCell>
                <mxCell id="87" value="" style="endArrow=none;html=1;fontSize=18;" edge="1" parent="1">
                    <mxGeometry width="50" height="50" relative="1" as="geometry">
                        <mxPoint x="430" y="1540" as="sourcePoint"/>
                        <mxPoint x="2910" y="1540" as="targetPoint"/>
                    </mxGeometry>
                </mxCell>
                <mxCell id="90" value="[5:0]stall" style="edgeLabel;html=1;align=center;verticalAlign=middle;resizable=0;points=[];fontSize=18;" vertex="1" connectable="0" parent="87">
                    <mxGeometry x="-0.9483" y="-1" relative="1" as="geometry">
                        <mxPoint as="offset"/>
                    </mxGeometry>
                </mxCell>
                <mxCell id="89" value="" style="endArrow=classic;html=1;fontSize=18;" edge="1" parent="1">
                    <mxGeometry width="50" height="50" relative="1" as="geometry">
                        <mxPoint x="430" y="1440" as="sourcePoint"/>
                        <mxPoint x="430" y="1540" as="targetPoint"/>
                    </mxGeometry>
                </mxCell>
                <mxCell id="91" value="" style="endArrow=classic;html=1;fontSize=18;" edge="1" parent="1">
                    <mxGeometry width="50" height="50" relative="1" as="geometry">
                        <mxPoint x="870" y="1540" as="sourcePoint"/>
                        <mxPoint x="870" y="1440" as="targetPoint"/>
                    </mxGeometry>
                </mxCell>
                <mxCell id="92" value="" style="endArrow=classic;html=1;fontSize=18;" edge="1" parent="1">
                    <mxGeometry width="50" height="50" relative="1" as="geometry">
                        <mxPoint x="1300" y="1540" as="sourcePoint"/>
                        <mxPoint x="1300" y="1440" as="targetPoint"/>
                    </mxGeometry>
                </mxCell>
                <mxCell id="93" value="" style="endArrow=classic;html=1;fontSize=18;" edge="1" parent="1">
                    <mxGeometry width="50" height="50" relative="1" as="geometry">
                        <mxPoint x="1770" y="1540" as="sourcePoint"/>
                        <mxPoint x="1770" y="1440" as="targetPoint"/>
                    </mxGeometry>
                </mxCell>
                <mxCell id="94" value="" style="endArrow=classic;html=1;fontSize=18;" edge="1" parent="1">
                    <mxGeometry width="50" height="50" relative="1" as="geometry">
                        <mxPoint x="2240" y="1540" as="sourcePoint"/>
                        <mxPoint x="2240" y="1440" as="targetPoint"/>
                    </mxGeometry>
                </mxCell>
                <mxCell id="95" value="" style="endArrow=classic;html=1;fontSize=18;" edge="1" parent="1">
                    <mxGeometry width="50" height="50" relative="1" as="geometry">
                        <mxPoint x="2720" y="1540" as="sourcePoint"/>
                        <mxPoint x="2720" y="1440" as="targetPoint"/>
                    </mxGeometry>
                </mxCell>
                <mxCell id="96" value="" style="endArrow=classic;html=1;fontSize=18;entryX=0;entryY=0.159;entryDx=0;entryDy=0;entryPerimeter=0;" edge="1" parent="1" target="28">
                    <mxGeometry width="50" height="50" relative="1" as="geometry">
                        <mxPoint x="1080" y="1070" as="sourcePoint"/>
                        <mxPoint x="1240" y="1070" as="targetPoint"/>
                    </mxGeometry>
                </mxCell>
                <mxCell id="97" value="[32:0]if_to_id_bus" style="edgeLabel;html=1;align=center;verticalAlign=middle;resizable=0;points=[];fontSize=18;" vertex="1" connectable="0" parent="96">
                    <mxGeometry x="-0.7111" y="-2" relative="1" as="geometry">
                        <mxPoint x="62" as="offset"/>
                    </mxGeometry>
                </mxCell>
                <mxCell id="98" value="" style="endArrow=classic;html=1;fontSize=18;entryX=1;entryY=0.25;entryDx=0;entryDy=0;" edge="1" parent="1" target="27">
                    <mxGeometry width="50" height="50" relative="1" as="geometry">
                        <mxPoint x="1270" y="1110" as="sourcePoint"/>
                        <mxPoint x="1430" y="1110" as="targetPoint"/>
                    </mxGeometry>
                </mxCell>
                <mxCell id="99" value="[32:0]br_bus" style="edgeLabel;html=1;align=center;verticalAlign=middle;resizable=0;points=[];fontSize=18;" vertex="1" connectable="0" parent="98">
                    <mxGeometry x="0.4368" relative="1" as="geometry">
                        <mxPoint x="36" as="offset"/>
                    </mxGeometry>
                </mxCell>
                <mxCell id="100" value="" style="endArrow=classic;html=1;fontSize=18;entryX=0.201;entryY=1.004;entryDx=0;entryDy=0;entryPerimeter=0;" edge="1" parent="1" target="33">
                    <mxGeometry width="50" height="50" relative="1" as="geometry">
                        <mxPoint x="889" y="1440" as="sourcePoint"/>
                        <mxPoint x="889" y="1340" as="targetPoint"/>
                    </mxGeometry>
                </mxCell>
                <mxCell id="103" value="inst_sram_en" style="edgeLabel;html=1;align=center;verticalAlign=middle;resizable=0;points=[];fontSize=18;" vertex="1" connectable="0" parent="100">
                    <mxGeometry x="-0.3326" y="-1" relative="1" as="geometry">
                        <mxPoint as="offset"/>
                    </mxGeometry>
                </mxCell>
                <mxCell id="101" value="" style="endArrow=classic;html=1;fontSize=18;entryX=0.202;entryY=1.003;entryDx=0;entryDy=0;entryPerimeter=0;" edge="1" parent="1">
                    <mxGeometry width="50" height="50" relative="1" as="geometry">
                        <mxPoint x="943.4" y="1440" as="sourcePoint"/>
                        <mxPoint x="940.0000000000003" y="1823" as="targetPoint"/>
                    </mxGeometry>
                </mxCell>
                <mxCell id="104" value="[3:0] inst_sram_wen" style="edgeLabel;html=1;align=center;verticalAlign=middle;resizable=0;points=[];fontSize=18;" vertex="1" connectable="0" parent="101">
                    <mxGeometry x="-0.1082" y="2" relative="1" as="geometry">
                        <mxPoint as="offset"/>
                    </mxGeometry>
                </mxCell>
                <mxCell id="102" value="" style="endArrow=classic;html=1;fontSize=18;entryX=0.202;entryY=1.003;entryDx=0;entryDy=0;entryPerimeter=0;" edge="1" parent="1">
                    <mxGeometry width="50" height="50" relative="1" as="geometry">
                        <mxPoint x="1001.6999999999999" y="1440" as="sourcePoint"/>
                        <mxPoint x="998.3000000000003" y="1823" as="targetPoint"/>
                    </mxGeometry>
                </mxCell>
                <mxCell id="105" value="[31:0] inst_sram_addr" style="edgeLabel;html=1;align=center;verticalAlign=middle;resizable=0;points=[];fontSize=18;" vertex="1" connectable="0" parent="102">
                    <mxGeometry x="0.1739" y="-1" relative="1" as="geometry">
                        <mxPoint as="offset"/>
                    </mxGeometry>
                </mxCell>
                <mxCell id="106" value="" style="endArrow=classic;html=1;fontSize=18;entryX=0.202;entryY=1.003;entryDx=0;entryDy=0;entryPerimeter=0;" edge="1" parent="1">
                    <mxGeometry width="50" height="50" relative="1" as="geometry">
                        <mxPoint x="1053.4" y="1440" as="sourcePoint"/>
                        <mxPoint x="1050.0000000000005" y="1823" as="targetPoint"/>
                    </mxGeometry>
                </mxCell>
                <mxCell id="108" value="[31:0] inst_sram_wdata" style="edgeLabel;html=1;align=center;verticalAlign=middle;resizable=0;points=[];fontSize=18;" vertex="1" connectable="0" parent="106">
                    <mxGeometry x="0.4453" y="2" relative="1" as="geometry">
                        <mxPoint as="offset"/>
                    </mxGeometry>
                </mxCell>
                <mxCell id="109" value="" style="endArrow=classic;html=1;fontSize=18;" edge="1" parent="1">
                    <mxGeometry width="50" height="50" relative="1" as="geometry">
                        <mxPoint x="360" y="1280" as="sourcePoint"/>
                        <mxPoint x="360" y="1640" as="targetPoint"/>
                    </mxGeometry>
                </mxCell>
                <mxCell id="110" value="" style="endArrow=classic;html=1;fontSize=18;" edge="1" parent="1">
                    <mxGeometry width="50" height="50" relative="1" as="geometry">
                        <mxPoint x="320" y="1280" as="sourcePoint"/>
                        <mxPoint x="360" y="1280" as="targetPoint"/>
                    </mxGeometry>
                </mxCell>
                <mxCell id="111" value="" style="endArrow=classic;html=1;fontSize=18;" edge="1" parent="1">
                    <mxGeometry width="50" height="50" relative="1" as="geometry">
                        <mxPoint x="360" y="1640" as="sourcePoint"/>
                        <mxPoint x="1340" y="1640" as="targetPoint"/>
                    </mxGeometry>
                </mxCell>
                <mxCell id="112" value="" style="endArrow=classic;html=1;fontSize=18;" edge="1" parent="1">
                    <mxGeometry width="50" height="50" relative="1" as="geometry">
                        <mxPoint x="2320" y="1560" as="sourcePoint"/>
                        <mxPoint x="2320" y="1440" as="targetPoint"/>
                    </mxGeometry>
                </mxCell>
                <mxCell id="113" value="" style="endArrow=classic;html=1;fontSize=18;" edge="1" parent="1">
                    <mxGeometry width="50" height="50" relative="1" as="geometry">
                        <mxPoint x="1340" y="1640" as="sourcePoint"/>
                        <mxPoint x="1340" y="1440" as="targetPoint"/>
                    </mxGeometry>
                </mxCell>
                <mxCell id="114" value="[31:0] inst_sram_rdata" style="edgeLabel;html=1;align=center;verticalAlign=middle;resizable=0;points=[];fontSize=18;" vertex="1" connectable="0" parent="113">
                    <mxGeometry x="0.6716" y="2" relative="1" as="geometry">
                        <mxPoint x="-118" y="167" as="offset"/>
                    </mxGeometry>
                </mxCell>
                <mxCell id="115" value="" style="endArrow=classic;html=1;fontSize=18;entryX=-0.001;entryY=0.157;entryDx=0;entryDy=0;entryPerimeter=0;" edge="1" parent="1" target="29">
                    <mxGeometry width="50" height="50" relative="1" as="geometry">
                        <mxPoint x="1510" y="1070.04" as="sourcePoint"/>
                        <mxPoint x="1700" y="1070" as="targetPoint"/>
                    </mxGeometry>
                </mxCell>
                <mxCell id="116" value="[158:0]id_to_ex_bus" style="edgeLabel;html=1;align=center;verticalAlign=middle;resizable=0;points=[];fontSize=18;" vertex="1" connectable="0" parent="115">
                    <mxGeometry x="-0.7111" y="-2" relative="1" as="geometry">
                        <mxPoint x="62" as="offset"/>
                    </mxGeometry>
                </mxCell>
                <mxCell id="117" value="" style="endArrow=classic;html=1;fontSize=18;" edge="1" parent="1">
                    <mxGeometry width="50" height="50" relative="1" as="geometry">
                        <mxPoint x="470" y="1480" as="sourcePoint"/>
                        <mxPoint x="470.5" y="1440" as="targetPoint"/>
                    </mxGeometry>
                </mxCell>
                <mxCell id="118" value="" style="endArrow=classic;html=1;fontSize=18;" edge="1" parent="1">
                    <mxGeometry width="50" height="50" relative="1" as="geometry">
                        <mxPoint x="1380" y="1440" as="sourcePoint"/>
                        <mxPoint x="1380" y="1480" as="targetPoint"/>
                    </mxGeometry>
                </mxCell>
                <mxCell id="119" value="" style="endArrow=classic;html=1;fontSize=18;" edge="1" parent="1">
                    <mxGeometry width="50" height="50" relative="1" as="geometry">
                        <mxPoint x="1380" y="1480" as="sourcePoint"/>
                        <mxPoint x="470" y="1480" as="targetPoint"/>
                    </mxGeometry>
                </mxCell>
                <mxCell id="120" value="stallreq_for_bru" style="edgeLabel;html=1;align=center;verticalAlign=middle;resizable=0;points=[];fontSize=18;" vertex="1" connectable="0" parent="119">
                    <mxGeometry x="-0.6303" y="-3" relative="1" as="geometry">
                        <mxPoint as="offset"/>
                    </mxGeometry>
                </mxCell>
                <mxCell id="121" value="" style="endArrow=classic;html=1;fontSize=18;entryX=-0.001;entryY=0.157;entryDx=0;entryDy=0;entryPerimeter=0;" edge="1" parent="1">
                    <mxGeometry width="50" height="50" relative="1" as="geometry">
                        <mxPoint x="1510" y="1110.96" as="sourcePoint"/>
                        <mxPoint x="1739.7600000000002" y="1110" as="targetPoint"/>
                    </mxGeometry>
                </mxCell>
                <mxCell id="122" value="[4:0]id_load_bus" style="edgeLabel;html=1;align=center;verticalAlign=middle;resizable=0;points=[];fontSize=18;" vertex="1" connectable="0" parent="121">
                    <mxGeometry x="-0.7111" y="-2" relative="1" as="geometry">
                        <mxPoint x="62" as="offset"/>
                    </mxGeometry>
                </mxCell>
                <mxCell id="123" value="" style="endArrow=classic;html=1;fontSize=18;entryX=-0.001;entryY=0.157;entryDx=0;entryDy=0;entryPerimeter=0;" edge="1" parent="1">
                    <mxGeometry width="50" height="50" relative="1" as="geometry">
                        <mxPoint x="1510.24" y="1150.96" as="sourcePoint"/>
                        <mxPoint x="1740.0000000000002" y="1150" as="targetPoint"/>
                    </mxGeometry>
                </mxCell>
                <mxCell id="124" value="[2:0]id_save_bus" style="edgeLabel;html=1;align=center;verticalAlign=middle;resizable=0;points=[];fontSize=18;" vertex="1" connectable="0" parent="123">
                    <mxGeometry x="-0.7111" y="-2" relative="1" as="geometry">
                        <mxPoint x="62" as="offset"/>
                    </mxGeometry>
                </mxCell>
                <mxCell id="125" value="" style="endArrow=classic;html=1;fontSize=18;entryX=-0.001;entryY=0.157;entryDx=0;entryDy=0;entryPerimeter=0;" edge="1" parent="1">
                    <mxGeometry width="50" height="50" relative="1" as="geometry">
                        <mxPoint x="1510.2399999999998" y="1190.96" as="sourcePoint"/>
                        <mxPoint x="1740" y="1190" as="targetPoint"/>
                    </mxGeometry>
                </mxCell>
                <mxCell id="126" value="[71:0] id_hi_lo_bus" style="edgeLabel;html=1;align=center;verticalAlign=middle;resizable=0;points=[];fontSize=18;" vertex="1" connectable="0" parent="125">
                    <mxGeometry x="-0.7111" y="-2" relative="1" as="geometry">
                        <mxPoint x="62" as="offset"/>
                    </mxGeometry>
                </mxCell>
                <mxCell id="127" value="" style="endArrow=classic;html=1;fontSize=18;entryX=1;entryY=0.25;entryDx=0;entryDy=0;exitX=-0.001;exitY=0.567;exitDx=0;exitDy=0;exitPerimeter=0;" edge="1" parent="1" source="29">
                    <mxGeometry width="50" height="50" relative="1" as="geometry">
                        <mxPoint x="1700" y="1250" as="sourcePoint"/>
                        <mxPoint x="1510" y="1250" as="targetPoint"/>
                    </mxGeometry>
                </mxCell>
                <mxCell id="128" value="[37:0]ex_to_rf_bus" style="edgeLabel;html=1;align=center;verticalAlign=middle;resizable=0;points=[];fontSize=18;" vertex="1" connectable="0" parent="127">
                    <mxGeometry x="0.4368" relative="1" as="geometry">
                        <mxPoint x="36" as="offset"/>
                    </mxGeometry>
                </mxCell>
                <mxCell id="129" value="" style="endArrow=classic;html=1;fontSize=18;entryX=1;entryY=0.25;entryDx=0;entryDy=0;exitX=0.001;exitY=0.646;exitDx=0;exitDy=0;exitPerimeter=0;" edge="1" parent="1" source="29">
                    <mxGeometry width="50" height="50" relative="1" as="geometry">
                        <mxPoint x="1740.0000000000007" y="1280" as="sourcePoint"/>
                        <mxPoint x="1509.76" y="1282.28" as="targetPoint"/>
                    </mxGeometry>
                </mxCell>
                <mxCell id="130" value="ex_id" style="edgeLabel;html=1;align=center;verticalAlign=middle;resizable=0;points=[];fontSize=18;" vertex="1" connectable="0" parent="129">
                    <mxGeometry x="0.4368" relative="1" as="geometry">
                        <mxPoint x="36" as="offset"/>
                    </mxGeometry>
                </mxCell>
                <mxCell id="131" value="" style="endArrow=classic;html=1;fontSize=18;entryX=1;entryY=0.25;entryDx=0;entryDy=0;" edge="1" parent="1">
                    <mxGeometry width="50" height="50" relative="1" as="geometry">
                        <mxPoint x="1740" y="1321" as="sourcePoint"/>
                        <mxPoint x="1509.76" y="1321.14" as="targetPoint"/>
                    </mxGeometry>
                </mxCell>
                <mxCell id="132" value="[65:0] ex_hi_lo_bus" style="edgeLabel;html=1;align=center;verticalAlign=middle;resizable=0;points=[];fontSize=18;" vertex="1" connectable="0" parent="131">
                    <mxGeometry x="0.4368" relative="1" as="geometry">
                        <mxPoint x="36" as="offset"/>
                    </mxGeometry>
                </mxCell>
                <mxCell id="133" value="" style="endArrow=classic;html=1;fontSize=18;entryX=-0.001;entryY=0.157;entryDx=0;entryDy=0;entryPerimeter=0;" edge="1" parent="1">
                    <mxGeometry width="50" height="50" relative="1" as="geometry">
                        <mxPoint x="1980" y="1070.96" as="sourcePoint"/>
                        <mxPoint x="2209.76" y="1070" as="targetPoint"/>
                    </mxGeometry>
                </mxCell>
                <mxCell id="134" value="[75:0]ex_to_mem_bus" style="edgeLabel;html=1;align=center;verticalAlign=middle;resizable=0;points=[];fontSize=18;" vertex="1" connectable="0" parent="133">
                    <mxGeometry x="-0.7111" y="-2" relative="1" as="geometry">
                        <mxPoint x="77" as="offset"/>
                    </mxGeometry>
                </mxCell>
                <mxCell id="135" value="" style="endArrow=classic;html=1;fontSize=18;" edge="1" parent="1">
                    <mxGeometry width="50" height="50" relative="1" as="geometry">
                        <mxPoint x="1810" y="1440" as="sourcePoint"/>
                        <mxPoint x="1810" y="1510" as="targetPoint"/>
                    </mxGeometry>
                </mxCell>
                <mxCell id="136" value="" style="endArrow=classic;html=1;fontSize=18;" edge="1" parent="1">
                    <mxGeometry width="50" height="50" relative="1" as="geometry">
                        <mxPoint x="1810" y="1510" as="sourcePoint"/>
                        <mxPoint x="500" y="1510" as="targetPoint"/>
                    </mxGeometry>
                </mxCell>
                <mxCell id="137" value="stallreq_for_ex" style="edgeLabel;html=1;align=center;verticalAlign=middle;resizable=0;points=[];fontSize=18;" vertex="1" connectable="0" parent="136">
                    <mxGeometry x="-0.6303" y="-3" relative="1" as="geometry">
                        <mxPoint as="offset"/>
                    </mxGeometry>
                </mxCell>
                <mxCell id="138" value="" style="endArrow=classic;html=1;fontSize=18;entryX=0.424;entryY=1.007;entryDx=0;entryDy=0;entryPerimeter=0;" edge="1" parent="1" target="26">
                    <mxGeometry width="50" height="50" relative="1" as="geometry">
                        <mxPoint x="500" y="1510" as="sourcePoint"/>
                        <mxPoint x="500.5" y="1470" as="targetPoint"/>
                    </mxGeometry>
                </mxCell>
                <mxCell id="139" value="" style="endArrow=classic;html=1;fontSize=18;entryX=-0.001;entryY=0.157;entryDx=0;entryDy=0;entryPerimeter=0;" edge="1" parent="1">
                    <mxGeometry width="50" height="50" relative="1" as="geometry">
                        <mxPoint x="1980.24" y="1110.96" as="sourcePoint"/>
                        <mxPoint x="2210" y="1110" as="targetPoint"/>
                    </mxGeometry>
                </mxCell>
                <mxCell id="140" value="[3:0] data_ram_sel" style="edgeLabel;html=1;align=center;verticalAlign=middle;resizable=0;points=[];fontSize=18;" vertex="1" connectable="0" parent="139">
                    <mxGeometry x="-0.7111" y="-2" relative="1" as="geometry">
                        <mxPoint x="77" as="offset"/>
                    </mxGeometry>
                </mxCell>
                <mxCell id="141" value="" style="endArrow=classic;html=1;fontSize=18;entryX=-0.001;entryY=0.157;entryDx=0;entryDy=0;entryPerimeter=0;" edge="1" parent="1">
                    <mxGeometry width="50" height="50" relative="1" as="geometry">
                        <mxPoint x="1979.9999999999998" y="1150.96" as="sourcePoint"/>
                        <mxPoint x="2209.76" y="1150" as="targetPoint"/>
                    </mxGeometry>
                </mxCell>
                <mxCell id="142" value="[4:0]ex_load_bus" style="edgeLabel;html=1;align=center;verticalAlign=middle;resizable=0;points=[];fontSize=18;" vertex="1" connectable="0" parent="141">
                    <mxGeometry x="-0.7111" y="-2" relative="1" as="geometry">
                        <mxPoint x="77" as="offset"/>
                    </mxGeometry>
                </mxCell>
                <mxCell id="143" value="" style="endArrow=classic;html=1;fontSize=18;entryX=0.202;entryY=1.003;entryDx=0;entryDy=0;entryPerimeter=0;" edge="1" parent="1">
                    <mxGeometry width="50" height="50" relative="1" as="geometry">
                        <mxPoint x="1833.3999999999996" y="1440" as="sourcePoint"/>
                        <mxPoint x="1830" y="1823" as="targetPoint"/>
                    </mxGeometry>
                </mxCell>
                <mxCell id="145" value="data_sram_en" style="edgeLabel;html=1;align=center;verticalAlign=middle;resizable=0;points=[];fontSize=18;" vertex="1" connectable="0" parent="143">
                    <mxGeometry x="-0.1418" y="2" relative="1" as="geometry">
                        <mxPoint as="offset"/>
                    </mxGeometry>
                </mxCell>
                <mxCell id="146" value="" style="endArrow=classic;html=1;fontSize=18;entryX=0.202;entryY=1.003;entryDx=0;entryDy=0;entryPerimeter=0;" edge="1" parent="1">
                    <mxGeometry width="50" height="50" relative="1" as="geometry">
                        <mxPoint x="1873.3999999999996" y="1437" as="sourcePoint"/>
                        <mxPoint x="1870" y="1820" as="targetPoint"/>
                    </mxGeometry>
                </mxCell>
                <mxCell id="150" value="[3:0] data_sram_wen" style="edgeLabel;html=1;align=center;verticalAlign=middle;resizable=0;points=[];fontSize=18;" vertex="1" connectable="0" parent="146">
                    <mxGeometry x="0.0829" y="-1" relative="1" as="geometry">
                        <mxPoint as="offset"/>
                    </mxGeometry>
                </mxCell>
                <mxCell id="148" value="" style="endArrow=classic;html=1;fontSize=18;entryX=0.202;entryY=1.003;entryDx=0;entryDy=0;entryPerimeter=0;" edge="1" parent="1">
                    <mxGeometry width="50" height="50" relative="1" as="geometry">
                        <mxPoint x="1913.3999999999999" y="1440" as="sourcePoint"/>
                        <mxPoint x="1910.0000000000002" y="1823" as="targetPoint"/>
                    </mxGeometry>
                </mxCell>
                <mxCell id="151" value="[31:0] data_sram_addr" style="edgeLabel;html=1;align=center;verticalAlign=middle;resizable=0;points=[];fontSize=18;" vertex="1" connectable="0" parent="148">
                    <mxGeometry x="0.2709" y="-2" relative="1" as="geometry">
                        <mxPoint as="offset"/>
                    </mxGeometry>
                </mxCell>
                <mxCell id="149" value="" style="endArrow=classic;html=1;fontSize=18;entryX=0.202;entryY=1.003;entryDx=0;entryDy=0;entryPerimeter=0;" edge="1" parent="1">
                    <mxGeometry width="50" height="50" relative="1" as="geometry">
                        <mxPoint x="1953.3999999999999" y="1440" as="sourcePoint"/>
                        <mxPoint x="1950.0000000000002" y="1823" as="targetPoint"/>
                    </mxGeometry>
                </mxCell>
                <mxCell id="152" value="[31:0] data_sram_wdata" style="edgeLabel;html=1;align=center;verticalAlign=middle;resizable=0;points=[];fontSize=18;" vertex="1" connectable="0" parent="149">
                    <mxGeometry x="0.4797" y="1" relative="1" as="geometry">
                        <mxPoint as="offset"/>
                    </mxGeometry>
                </mxCell>
                <mxCell id="153" value="" style="endArrow=classic;html=1;fontSize=18;entryX=-0.001;entryY=0.157;entryDx=0;entryDy=0;entryPerimeter=0;" edge="1" parent="1">
                    <mxGeometry width="50" height="50" relative="1" as="geometry">
                        <mxPoint x="2450.24" y="1070.96" as="sourcePoint"/>
                        <mxPoint x="2680" y="1070" as="targetPoint"/>
                    </mxGeometry>
                </mxCell>
                <mxCell id="154" value="[69:0]mem_to_wb_bus" style="edgeLabel;html=1;align=center;verticalAlign=middle;resizable=0;points=[];fontSize=18;" vertex="1" connectable="0" parent="153">
                    <mxGeometry x="-0.7111" y="-2" relative="1" as="geometry">
                        <mxPoint x="77" as="offset"/>
                    </mxGeometry>
                </mxCell>
                <mxCell id="155" value="" style="endArrow=classic;html=1;fontSize=18;" edge="1" parent="1">
                    <mxGeometry width="50" height="50" relative="1" as="geometry">
                        <mxPoint x="2280" y="1440" as="sourcePoint"/>
                        <mxPoint x="2280" y="1480" as="targetPoint"/>
                    </mxGeometry>
                </mxCell>
                <mxCell id="156" value="" style="endArrow=classic;html=1;fontSize=18;" edge="1" parent="1">
                    <mxGeometry width="50" height="50" relative="1" as="geometry">
                        <mxPoint x="1420" y="1480" as="sourcePoint"/>
                        <mxPoint x="1420.5" y="1440" as="targetPoint"/>
                    </mxGeometry>
                </mxCell>
                <mxCell id="157" value="" style="endArrow=classic;html=1;fontSize=18;" edge="1" parent="1">
                    <mxGeometry width="50" height="50" relative="1" as="geometry">
                        <mxPoint x="2280" y="1480" as="sourcePoint"/>
                        <mxPoint x="1420" y="1480" as="targetPoint"/>
                    </mxGeometry>
                </mxCell>
                <mxCell id="158" value="[37:0]mem_to_rf" style="edgeLabel;html=1;align=center;verticalAlign=middle;resizable=0;points=[];fontSize=18;" vertex="1" connectable="0" parent="157">
                    <mxGeometry x="-0.6303" y="-3" relative="1" as="geometry">
                        <mxPoint as="offset"/>
                    </mxGeometry>
                </mxCell>
                <mxCell id="159" value="" style="endArrow=classic;html=1;fontSize=18;" edge="1" parent="1">
                    <mxGeometry width="50" height="50" relative="1" as="geometry">
                        <mxPoint x="320" y="1199" as="sourcePoint"/>
                        <mxPoint x="390" y="1199.5" as="targetPoint"/>
                    </mxGeometry>
                </mxCell>
                <mxCell id="160" value="" style="endArrow=classic;html=1;fontSize=18;" edge="1" parent="1">
                    <mxGeometry width="50" height="50" relative="1" as="geometry">
                        <mxPoint x="390" y="1200" as="sourcePoint"/>
                        <mxPoint x="390" y="1560" as="targetPoint"/>
                    </mxGeometry>
                </mxCell>
                <mxCell id="161" value="" style="endArrow=classic;html=1;fontSize=18;" edge="1" parent="1">
                    <mxGeometry width="50" height="50" relative="1" as="geometry">
                        <mxPoint x="390" y="1560" as="sourcePoint"/>
                        <mxPoint x="2320" y="1560" as="targetPoint"/>
                    </mxGeometry>
                </mxCell>
                <mxCell id="162" value="[31:0] data_sram_rdata" style="edgeLabel;html=1;align=center;verticalAlign=middle;resizable=0;points=[];fontSize=18;" vertex="1" connectable="0" parent="161">
                    <mxGeometry x="0.8928" y="-2" relative="1" as="geometry">
                        <mxPoint x="-7" y="-2" as="offset"/>
                    </mxGeometry>
                </mxCell>
                <mxCell id="163" value="" style="endArrow=classic;html=1;fontSize=18;" edge="1" parent="1">
                    <mxGeometry width="50" height="50" relative="1" as="geometry">
                        <mxPoint x="1030.5" y="1520" as="sourcePoint"/>
                        <mxPoint x="1030" y="1440" as="targetPoint"/>
                    </mxGeometry>
                </mxCell>
                <mxCell id="164" value="" style="endArrow=classic;html=1;fontSize=18;" edge="1" parent="1">
                    <mxGeometry width="50" height="50" relative="1" as="geometry">
                        <mxPoint x="2760" y="1440" as="sourcePoint"/>
                        <mxPoint x="2760" y="1520" as="targetPoint"/>
                    </mxGeometry>
                </mxCell>
                <mxCell id="165" value="" style="endArrow=classic;html=1;fontSize=18;" edge="1" parent="1">
                    <mxGeometry width="50" height="50" relative="1" as="geometry">
                        <mxPoint x="2760" y="1520" as="sourcePoint"/>
                        <mxPoint x="1030" y="1520" as="targetPoint"/>
                    </mxGeometry>
                </mxCell>
                <mxCell id="166" value="[37:0]wb_to_rf_bus" style="edgeLabel;html=1;align=center;verticalAlign=middle;resizable=0;points=[];fontSize=18;" vertex="1" connectable="0" parent="165">
                    <mxGeometry x="0.9034" y="1" relative="1" as="geometry">
                        <mxPoint x="26" as="offset"/>
                    </mxGeometry>
                </mxCell>
                <mxCell id="167" value="[37:0]wb_to_rf_bus" style="edgeLabel;html=1;align=center;verticalAlign=middle;resizable=0;points=[];fontSize=18;" vertex="1" connectable="0" parent="165">
                    <mxGeometry x="-0.8801" y="-1" relative="1" as="geometry">
                        <mxPoint x="-26" as="offset"/>
                    </mxGeometry>
                </mxCell>
                <mxCell id="168" value="" style="endArrow=classic;html=1;fontSize=18;entryX=0.202;entryY=1.003;entryDx=0;entryDy=0;entryPerimeter=0;" edge="1" parent="1">
                    <mxGeometry width="50" height="50" relative="1" as="geometry">
                        <mxPoint x="2793.3999999999996" y="1440" as="sourcePoint"/>
                        <mxPoint x="2790" y="1823" as="targetPoint"/>
                    </mxGeometry>
                </mxCell>
                <mxCell id="173" value="[31:0] debug_wb_pc" style="edgeLabel;html=1;align=center;verticalAlign=middle;resizable=0;points=[];fontSize=18;" vertex="1" connectable="0" parent="168">
                    <mxGeometry x="-0.2968" y="-3" relative="1" as="geometry">
                        <mxPoint as="offset"/>
                    </mxGeometry>
                </mxCell>
                <mxCell id="170" value="" style="endArrow=classic;html=1;fontSize=18;entryX=0.202;entryY=1.003;entryDx=0;entryDy=0;entryPerimeter=0;" edge="1" parent="1">
                    <mxGeometry width="50" height="50" relative="1" as="geometry">
                        <mxPoint x="2833.3999999999996" y="1440" as="sourcePoint"/>
                        <mxPoint x="2830" y="1823" as="targetPoint"/>
                    </mxGeometry>
                </mxCell>
                <mxCell id="174" value="[3:0] debug_wb_rf_wen" style="edgeLabel;html=1;align=center;verticalAlign=middle;resizable=0;points=[];fontSize=18;" vertex="1" connectable="0" parent="170">
                    <mxGeometry x="-0.0514" y="-2" relative="1" as="geometry">
                        <mxPoint as="offset"/>
                    </mxGeometry>
                </mxCell>
                <mxCell id="171" value="" style="endArrow=classic;html=1;fontSize=18;entryX=0.202;entryY=1.003;entryDx=0;entryDy=0;entryPerimeter=0;" edge="1" parent="1">
                    <mxGeometry width="50" height="50" relative="1" as="geometry">
                        <mxPoint x="2873.3999999999996" y="1440" as="sourcePoint"/>
                        <mxPoint x="2870" y="1823" as="targetPoint"/>
                    </mxGeometry>
                </mxCell>
                <mxCell id="175" value="[4:0] debug_wb_rf_wnum" style="edgeLabel;html=1;align=center;verticalAlign=middle;resizable=0;points=[];fontSize=18;" vertex="1" connectable="0" parent="171">
                    <mxGeometry x="0.2097" y="-1" relative="1" as="geometry">
                        <mxPoint as="offset"/>
                    </mxGeometry>
                </mxCell>
                <mxCell id="172" value="" style="endArrow=classic;html=1;fontSize=18;entryX=0.202;entryY=1.003;entryDx=0;entryDy=0;entryPerimeter=0;" edge="1" parent="1">
                    <mxGeometry width="50" height="50" relative="1" as="geometry">
                        <mxPoint x="2913.3999999999996" y="1440" as="sourcePoint"/>
                        <mxPoint x="2910" y="1823" as="targetPoint"/>
                    </mxGeometry>
                </mxCell>
                <mxCell id="176" value="[31:0] debug_wb_rf_wdata" style="edgeLabel;html=1;align=center;verticalAlign=middle;resizable=0;points=[];fontSize=18;" vertex="1" connectable="0" parent="172">
                    <mxGeometry x="0.4603" y="-1" relative="1" as="geometry">
                        <mxPoint as="offset"/>
                    </mxGeometry>
                </mxCell>
                <mxCell id="177" value="" style="endArrow=classic;html=1;fontSize=18;" edge="1" parent="1">
                    <mxGeometry width="50" height="50" relative="1" as="geometry">
                        <mxPoint x="1561" y="1900" as="sourcePoint"/>
                        <mxPoint x="1560.5" y="2010" as="targetPoint"/>
                    </mxGeometry>
                </mxCell>
                <mxCell id="178" value="" style="endArrow=classic;html=1;fontSize=18;" edge="1" parent="1">
                    <mxGeometry width="50" height="50" relative="1" as="geometry">
                        <mxPoint x="1910.5" y="1810" as="sourcePoint"/>
                        <mxPoint x="1910" y="1900" as="targetPoint"/>
                    </mxGeometry>
                </mxCell>
                <mxCell id="179" value="" style="endArrow=classic;html=1;fontSize=18;" edge="1" parent="1">
                    <mxGeometry width="50" height="50" relative="1" as="geometry">
                        <mxPoint x="1910" y="1900" as="sourcePoint"/>
                        <mxPoint x="1560" y="1900" as="targetPoint"/>
                    </mxGeometry>
                </mxCell>
                <mxCell id="181" value="[31:0] data_sram_addr" style="edgeLabel;html=1;align=center;verticalAlign=middle;resizable=0;points=[];fontSize=18;" vertex="1" connectable="0" parent="179">
                    <mxGeometry x="0.174" y="-1" relative="1" as="geometry">
                        <mxPoint as="offset"/>
                    </mxGeometry>
                </mxCell>
                <mxCell id="182" value="[31:0] inst_sram_addr" style="endArrow=classic;html=1;fontSize=18;entryX=0.275;entryY=1;entryDx=0;entryDy=0;entryPerimeter=0;" edge="1" parent="1" target="35">
                    <mxGeometry width="50" height="50" relative="1" as="geometry">
                        <mxPoint x="999.5" y="2220" as="sourcePoint"/>
                        <mxPoint x="1000" y="2410" as="targetPoint"/>
                    </mxGeometry>
                </mxCell>
                <mxCell id="183" value="[31:0] data_sram_addr" style="endArrow=classic;html=1;fontSize=18;entryX=0.47;entryY=1;entryDx=0;entryDy=0;entryPerimeter=0;" edge="1" parent="1" target="35">
                    <mxGeometry width="50" height="50" relative="1" as="geometry">
                        <mxPoint x="1593.8" y="2218.41" as="sourcePoint"/>
                        <mxPoint x="1590" y="2310" as="targetPoint"/>
                    </mxGeometry>
                </mxCell>
            </root>
        </mxGraphModel>
    </diagram>
</mxfile>